<?xml version="1.0" encoding="UTF-8" standalone="no"?>
<!-- Created with Inkscape (http://www.inkscape.org/) -->

<svg
   width="1920px"
   height="1080px"
   viewBox="0 0 1920 1080"
   version="1.1"
   id="SVGRoot"
   sodipodi:docname="YouTube_logo.svg"
   inkscape:version="1.1.1 (eb90963e84, 2021-10-02)"
   xmlns:inkscape="http://www.inkscape.org/namespaces/inkscape"
   xmlns:sodipodi="http://sodipodi.sourceforge.net/DTD/sodipodi-0.dtd"
   xmlns="http://www.w3.org/2000/svg"
   xmlns:svg="http://www.w3.org/2000/svg">
  <sodipodi:namedview
     id="namedview937"
     pagecolor="#ffffff"
     bordercolor="#666666"
     borderopacity="1.0"
     inkscape:pageshadow="2"
     inkscape:pageopacity="0.0"
     inkscape:pagecheckerboard="0"
     inkscape:document-units="px"
     showgrid="false"
     inkscape:zoom="1.4142136"
     inkscape:cx="931.61318"
     inkscape:cy="498.86383"
     inkscape:window-width="1920"
     inkscape:window-height="968"
     inkscape:window-x="0"
     inkscape:window-y="27"
     inkscape:window-maximized="1"
     inkscape:current-layer="layer1" />
  <defs
     id="defs932">
    <rect
       x="683.29315"
       y="514.80841"
       width="458.49286"
       height="138.88416"
       id="rect3230" />
  </defs>
  <g
     inkscape:label="Layer 1"
     inkscape:groupmode="layer"
     id="layer1">
    <rect
       style="fill:#0d0629;fill-opacity:1;stroke:#da0f00;stroke-width:0.381;stroke-linecap:square;stroke-miterlimit:4;stroke-dasharray:none;stroke-opacity:1"
       id="rect46946"
       width="871.96155"
       height="416.74133"
       x="518.7641"
       y="292.92715"
       rx="3.7876899"
       ry="0.0541187" />
    <rect
       style="fill:#fe0901;fill-opacity:0.61093909;stroke:#670dc8;stroke-width:0.334782;stroke-linecap:square;stroke-miterlimit:4;stroke-dasharray:none;stroke-opacity:1"
       id="rect1266"
       width="598.6026"
       height="134.7784"
       x="653.08173"
       y="379.49924"
       rx="13.337043"
       ry="6.7867141"
       inkscape:export-filename="/home/radagast/MEGA/Projects/YouTube_Stats_Dashboard/figs/dash_logo.png"
       inkscape:export-xdpi="96"
       inkscape:export-ydpi="96" />
    <g
       id="g5"
       transform="translate(680.72913,403.72162)"
       style="fill:#ffffff;fill-opacity:1"
       inkscape:export-filename="/home/radagast/MEGA/Projects/YouTube_Stats_Dashboard/figs/dash_logo.png"
       inkscape:export-xdpi="96"
       inkscape:export-ydpi="96">
      <path
         style="fill:#ffffff;fill-opacity:1"
         d="m 60.699219,0 c 0,0 -38,0 -47.5,2.5 C 8.0992187,3.9 3.9,8.1007812 2.5,13.300781 0,22.800781 0,42.5 0,42.5 c 0,0 0,19.799219 2.5,29.199219 1.4,5.2 5.4992188,9.301172 10.699219,10.701172 9.6,2.6 47.5,2.599609 47.5,2.599609 0,0 38,0 47.500001,-2.5 5.2,-1.4 9.30117,-5.499219 10.70117,-10.699219 2.5,-9.5 2.5,-29.201172 2.5,-29.201172 0,0 0.1,-19.798828 -2.5,-29.298828 -1.4,-5.1999997 -5.50117,-9.3011716 -10.70117,-10.7011716 C 98.699219,-3.90625e-4 60.699219,0 60.699219,0 Z M 48.599609,24.300781 80.199219,42.5 48.599609,60.699219 Z"
         id="path7" />
    </g>
    <g
       id="g11"
       transform="translate(680.72913,403.72162)"
       style="fill:#ffffff;fill-opacity:1"
       inkscape:export-filename="/home/radagast/MEGA/Projects/YouTube_Stats_Dashboard/figs/dash_logo.png"
       inkscape:export-xdpi="96"
       inkscape:export-ydpi="96">
      <path
         class="st2"
         d="m 176.3,77.4 c -2.4,-1.6 -4.1,-4.1 -5.1,-7.6 -1,-3.4 -1.5,-8 -1.5,-13.6 v -7.7 c 0,-5.7 0.6,-10.3 1.7,-13.8 1.2,-3.5 3,-6 5.4,-7.6 2.5,-1.6 5.7,-2.4 9.7,-2.4 3.9,0 7.1,0.8 9.5,2.4 2.4,1.6 4.1,4.2 5.2,7.6 1.1,3.4 1.7,8 1.7,13.8 v 7.7 c 0,5.7 -0.5,10.2 -1.6,13.7 -1.1,3.4 -2.8,6 -5.2,7.6 -2.4,1.6 -5.7,2.4 -9.8,2.4 -4.2,-0.1 -7.6,-0.9 -10,-2.5 z M 189.8,69 c 0.7,-1.7 1,-4.6 1,-8.5 V 43.9 c 0,-3.8 -0.3,-6.6 -1,-8.4 -0.7,-1.8 -1.8,-2.6 -3.5,-2.6 -1.6,0 -2.8,0.9 -3.4,2.6 -0.7,1.8 -1,4.6 -1,8.4 v 16.6 c 0,3.9 0.3,6.8 1,8.5 0.6,1.7 1.8,2.6 3.5,2.6 1.6,0 2.7,-0.8 3.4,-2.6 z"
         id="path15"
         style="fill:#ffffff;fill-opacity:1" />
      <path
         class="st2"
         d="M 360.9,56.3 V 59 c 0,3.4 0.1,6 0.3,7.7 0.2,1.7 0.6,3 1.3,3.7 0.6,0.8 1.6,1.2 3,1.2 1.8,0 3,-0.7 3.7,-2.1 0.7,-1.4 1,-3.7 1.1,-7 l 10.3,0.6 c 0.1,0.5 0.1,1.1 0.1,1.9 0,4.9 -1.3,8.6 -4,11 -2.7,2.4 -6.5,3.6 -11.4,3.6 -5.9,0 -10,-1.9 -12.4,-5.6 -2.4,-3.7 -3.6,-9.4 -3.6,-17.2 v -9.3 c 0,-8 1.2,-13.8 3.7,-17.5 2.5,-3.7 6.7,-5.5 12.6,-5.5 4.1,0 7.3,0.8 9.5,2.3 2.2,1.5 3.7,3.9 4.6,7 0.9,3.2 1.3,7.6 1.3,13.2 v 9.1 h -20.1 z m 1.5,-22.4 c -0.6,0.8 -1,2 -1.2,3.7 -0.2,1.7 -0.3,4.3 -0.3,7.8 v 3.8 h 8.8 v -3.8 c 0,-3.4 -0.1,-6 -0.3,-7.8 -0.2,-1.8 -0.7,-3 -1.3,-3.7 -0.6,-0.7 -1.6,-1.1 -2.8,-1.1 -1.4,-0.1 -2.3,0.3 -2.9,1.1 z"
         id="path17"
         style="fill:#ffffff;fill-opacity:1" />
      <path
         class="st2"
         d="M 147.1,55.3 133.5,6 h 11.9 l 4.8,22.3 c 1.2,5.5 2.1,10.2 2.7,14.1 h 0.3 c 0.4,-2.8 1.3,-7.4 2.7,-14 l 5,-22.4 h 11.9 L 159,55.3 V 78.9 H 147.2 V 55.3 Z"
         id="path19"
         style="fill:#ffffff;fill-opacity:1" />
      <path
         class="st2"
         d="M 241.6,25.7 V 79 h -9.4 l -1,-6.5 h -0.3 c -2.5,4.9 -6.4,7.4 -11.5,7.4 -3.5,0 -6.1,-1.2 -7.8,-3.5 -1.7,-2.3 -2.5,-5.9 -2.5,-10.9 V 25.7 h 12 v 39.1 c 0,2.4 0.3,4.1 0.8,5.1 0.5,1 1.4,1.5 2.6,1.5 1,0 2,-0.3 3,-1 1,-0.6 1.7,-1.4 2.1,-2.4 V 25.7 Z"
         id="path21"
         style="fill:#ffffff;fill-opacity:1" />
      <path
         class="st2"
         d="M 303.1,25.7 V 79 h -9.4 l -1,-6.5 h -0.3 c -2.5,4.9 -6.4,7.4 -11.5,7.4 -3.5,0 -6.1,-1.2 -7.8,-3.5 -1.7,-2.3 -2.5,-5.9 -2.5,-10.9 V 25.7 h 12 v 39.1 c 0,2.4 0.3,4.1 0.8,5.1 0.5,1 1.4,1.5 2.6,1.5 1,0 2,-0.3 3,-1 1,-0.6 1.7,-1.4 2.1,-2.4 V 25.7 Z"
         id="path23"
         style="fill:#ffffff;fill-opacity:1" />
      <path
         class="st2"
         d="M 274.2,15.7 H 262.3 V 78.9 H 250.6 V 15.7 H 238.7 V 6 h 35.5 z"
         id="path25"
         style="fill:#ffffff;fill-opacity:1" />
      <path
         class="st2"
         d="m 342.8,34.2 c -0.7,-3.4 -1.9,-5.8 -3.5,-7.3 -1.6,-1.5 -3.9,-2.3 -6.7,-2.3 -2.2,0 -4.3,0.6 -6.2,1.9 -1.9,1.2 -3.4,2.9 -4.4,4.9 h -0.1 V 3.3 h -11.6 v 75.6 h 9.9 l 1.2,-5 h 0.3 c 0.9,1.8 2.3,3.2 4.2,4.3 1.9,1 3.9,1.6 6.2,1.6 4.1,0 7,-1.9 8.9,-5.6 1.9,-3.7 2.9,-9.6 2.9,-17.5 v -8.4 c -0.1,-6.1 -0.4,-10.8 -1.1,-14.1 z m -11,21.7 c 0,3.9 -0.2,6.9 -0.5,9.1 -0.3,2.2 -0.9,3.8 -1.6,4.7 -0.8,0.9 -1.8,1.4 -3,1.4 -1,0 -1.9,-0.2 -2.7,-0.7 -0.8,-0.5 -1.5,-1.2 -2,-2.1 V 38.1 c 0.4,-1.4 1.1,-2.6 2.1,-3.6 1,-0.9 2.1,-1.4 3.2,-1.4 1.2,0 2.2,0.5 2.8,1.4 0.7,1 1.1,2.6 1.4,4.8 0.3,2.3 0.4,5.5 0.4,9.6 v 7 z"
         id="path27"
         style="fill:#ffffff;fill-opacity:1" />
    </g>
    <text
       xml:space="preserve"
       id="text3228"
       style="font-style:normal;font-variant:normal;font-weight:bold;font-stretch:condensed;font-size:40px;line-height:1.25;font-family:'Liberation Sans Narrow';-inkscape-font-specification:'Liberation Sans Narrow, Bold Condensed';font-variant-ligatures:normal;font-variant-caps:normal;font-variant-numeric:normal;font-variant-east-asian:normal;white-space:pre;shape-inside:url(#rect3230);fill:#ffffff;fill-opacity:1;stroke:none"
       transform="matrix(2.0553194,0,0,2.6659901,-322.02926,-985.16823)"
       inkscape:export-filename="/home/radagast/MEGA/Projects/YouTube_Stats_Dashboard/figs/dash_logo.png"
       inkscape:export-xdpi="96"
       inkscape:export-ydpi="96"><tspan
         x="683.29297"
         y="550.83877"
         id="tspan53428">EDA</tspan></text>
  </g>
  <style
     type="text/css"
     id="style3">
	.st0{fill:#FF0000;}
	.st1{fill:#FFFFFF;}
	.st2{fill:#282828;}
</style>
</svg>
